<mxfile host="app.diagrams.net" agent="Mozilla/5.0 (Windows NT 10.0; Win64; x64) AppleWebKit/537.36 (KHTML, like Gecko) Chrome/131.0.0.0 Safari/537.36" version="26.0.2">
  <diagram name="Page-1" id="iIS1LFro7bLH-GJZMT1k">
    <mxGraphModel dx="1050" dy="522" grid="0" gridSize="10" guides="1" tooltips="1" connect="1" arrows="1" fold="1" page="1" pageScale="1" pageWidth="827" pageHeight="1169" math="0" shadow="0">
      <root>
        <mxCell id="0" />
        <mxCell id="1" parent="0" />
        <mxCell id="0s8KUhowPci_GjtV0Qzg-10" style="edgeStyle=orthogonalEdgeStyle;rounded=0;orthogonalLoop=1;jettySize=auto;html=1;exitX=0.5;exitY=1;exitDx=0;exitDy=0;entryX=0;entryY=0.5;entryDx=0;entryDy=0;" parent="1" source="0s8KUhowPci_GjtV0Qzg-1" target="0s8KUhowPci_GjtV0Qzg-3" edge="1">
          <mxGeometry relative="1" as="geometry">
            <mxPoint x="400" y="140" as="targetPoint" />
          </mxGeometry>
        </mxCell>
        <mxCell id="0s8KUhowPci_GjtV0Qzg-1" value="Start" style="rounded=1;whiteSpace=wrap;html=1;" parent="1" vertex="1">
          <mxGeometry x="350" y="50" width="100" height="40" as="geometry" />
        </mxCell>
        <mxCell id="0s8KUhowPci_GjtV0Qzg-5" value="" style="edgeStyle=orthogonalEdgeStyle;rounded=0;orthogonalLoop=1;jettySize=auto;html=1;" parent="1" source="0s8KUhowPci_GjtV0Qzg-2" target="0s8KUhowPci_GjtV0Qzg-4" edge="1">
          <mxGeometry relative="1" as="geometry" />
        </mxCell>
        <mxCell id="0s8KUhowPci_GjtV0Qzg-20" value="" style="edgeStyle=orthogonalEdgeStyle;rounded=0;orthogonalLoop=1;jettySize=auto;html=1;" parent="1" source="0s8KUhowPci_GjtV0Qzg-2" target="0s8KUhowPci_GjtV0Qzg-19" edge="1">
          <mxGeometry relative="1" as="geometry" />
        </mxCell>
        <mxCell id="qS_DF8TeXxziXNSjsPq--3" style="edgeStyle=orthogonalEdgeStyle;rounded=0;orthogonalLoop=1;jettySize=auto;html=1;entryX=0;entryY=0.5;entryDx=0;entryDy=0;" edge="1" parent="1" source="0s8KUhowPci_GjtV0Qzg-2" target="0s8KUhowPci_GjtV0Qzg-40">
          <mxGeometry relative="1" as="geometry">
            <Array as="points">
              <mxPoint x="217" y="140" />
              <mxPoint x="217" y="600" />
            </Array>
          </mxGeometry>
        </mxCell>
        <mxCell id="0s8KUhowPci_GjtV0Qzg-2" value="Process Labeled Datasets&amp;nbsp;" style="rounded=1;whiteSpace=wrap;html=1;" parent="1" vertex="1">
          <mxGeometry x="230" y="110" width="120" height="60" as="geometry" />
        </mxCell>
        <mxCell id="0s8KUhowPci_GjtV0Qzg-9" value="" style="edgeStyle=orthogonalEdgeStyle;rounded=0;orthogonalLoop=1;jettySize=auto;html=1;" parent="1" source="0s8KUhowPci_GjtV0Qzg-3" target="0s8KUhowPci_GjtV0Qzg-8" edge="1">
          <mxGeometry relative="1" as="geometry">
            <Array as="points">
              <mxPoint x="480" y="190" />
              <mxPoint x="480" y="190" />
            </Array>
          </mxGeometry>
        </mxCell>
        <mxCell id="0s8KUhowPci_GjtV0Qzg-3" value="Run YOLO on an Image&amp;nbsp;" style="rounded=1;whiteSpace=wrap;html=1;" parent="1" vertex="1">
          <mxGeometry x="450" y="110" width="120" height="60" as="geometry" />
        </mxCell>
        <mxCell id="0s8KUhowPci_GjtV0Qzg-34" style="edgeStyle=orthogonalEdgeStyle;rounded=0;orthogonalLoop=1;jettySize=auto;html=1;" parent="1" source="0s8KUhowPci_GjtV0Qzg-4" target="0s8KUhowPci_GjtV0Qzg-32" edge="1">
          <mxGeometry relative="1" as="geometry">
            <Array as="points">
              <mxPoint x="140" y="360" />
              <mxPoint x="140" y="360" />
            </Array>
          </mxGeometry>
        </mxCell>
        <mxCell id="0s8KUhowPci_GjtV0Qzg-4" value="Count number of cars in GT Data&lt;div&gt;(GTBoxes)&lt;/div&gt;" style="rounded=1;whiteSpace=wrap;html=1;" parent="1" vertex="1">
          <mxGeometry x="80" y="230" width="120" height="60" as="geometry" />
        </mxCell>
        <mxCell id="0s8KUhowPci_GjtV0Qzg-13" value="" style="edgeStyle=orthogonalEdgeStyle;rounded=0;orthogonalLoop=1;jettySize=auto;html=1;" parent="1" source="0s8KUhowPci_GjtV0Qzg-8" target="0s8KUhowPci_GjtV0Qzg-12" edge="1">
          <mxGeometry relative="1" as="geometry" />
        </mxCell>
        <mxCell id="0s8KUhowPci_GjtV0Qzg-18" value="No" style="edgeLabel;html=1;align=center;verticalAlign=middle;resizable=0;points=[];" parent="0s8KUhowPci_GjtV0Qzg-13" vertex="1" connectable="0">
          <mxGeometry x="-0.1324" relative="1" as="geometry">
            <mxPoint as="offset" />
          </mxGeometry>
        </mxCell>
        <mxCell id="0s8KUhowPci_GjtV0Qzg-22" value="" style="edgeStyle=orthogonalEdgeStyle;rounded=0;orthogonalLoop=1;jettySize=auto;html=1;" parent="1" source="0s8KUhowPci_GjtV0Qzg-8" target="0s8KUhowPci_GjtV0Qzg-21" edge="1">
          <mxGeometry relative="1" as="geometry">
            <Array as="points">
              <mxPoint x="480" y="390" />
            </Array>
          </mxGeometry>
        </mxCell>
        <mxCell id="0s8KUhowPci_GjtV0Qzg-24" value="Yes" style="edgeLabel;html=1;align=center;verticalAlign=middle;resizable=0;points=[];" parent="0s8KUhowPci_GjtV0Qzg-22" vertex="1" connectable="0">
          <mxGeometry x="-0.7145" y="2" relative="1" as="geometry">
            <mxPoint as="offset" />
          </mxGeometry>
        </mxCell>
        <mxCell id="0s8KUhowPci_GjtV0Qzg-26" value="" style="edgeStyle=orthogonalEdgeStyle;rounded=0;orthogonalLoop=1;jettySize=auto;html=1;" parent="1" source="0s8KUhowPci_GjtV0Qzg-8" target="0s8KUhowPci_GjtV0Qzg-25" edge="1">
          <mxGeometry relative="1" as="geometry">
            <Array as="points">
              <mxPoint x="480" y="340" />
            </Array>
          </mxGeometry>
        </mxCell>
        <mxCell id="0s8KUhowPci_GjtV0Qzg-8" value="Car Class is Detected in an Image?" style="rounded=1;whiteSpace=wrap;html=1;" parent="1" vertex="1">
          <mxGeometry x="440" y="220" width="120" height="60" as="geometry" />
        </mxCell>
        <mxCell id="0s8KUhowPci_GjtV0Qzg-11" style="edgeStyle=orthogonalEdgeStyle;rounded=0;orthogonalLoop=1;jettySize=auto;html=1;entryX=1;entryY=0.5;entryDx=0;entryDy=0;" parent="1" target="0s8KUhowPci_GjtV0Qzg-2" edge="1">
          <mxGeometry relative="1" as="geometry">
            <mxPoint x="351" y="130" as="targetPoint" />
            <mxPoint x="400" y="140" as="sourcePoint" />
            <Array as="points">
              <mxPoint x="390" y="140" />
              <mxPoint x="390" y="140" />
            </Array>
          </mxGeometry>
        </mxCell>
        <mxCell id="0s8KUhowPci_GjtV0Qzg-15" value="" style="edgeStyle=orthogonalEdgeStyle;rounded=0;orthogonalLoop=1;jettySize=auto;html=1;entryX=1;entryY=0.5;entryDx=0;entryDy=0;exitX=0.5;exitY=0;exitDx=0;exitDy=0;" parent="1" source="0s8KUhowPci_GjtV0Qzg-12" target="0s8KUhowPci_GjtV0Qzg-3" edge="1">
          <mxGeometry relative="1" as="geometry">
            <mxPoint x="619.9999999999998" y="217.6544827586207" as="sourcePoint" />
            <mxPoint x="573.7199999999998" y="120" as="targetPoint" />
            <Array as="points">
              <mxPoint x="670" y="140" />
            </Array>
          </mxGeometry>
        </mxCell>
        <mxCell id="0s8KUhowPci_GjtV0Qzg-12" value="Next Image" style="rounded=1;whiteSpace=wrap;html=1;" parent="1" vertex="1">
          <mxGeometry x="600" y="220" width="120" height="60" as="geometry" />
        </mxCell>
        <mxCell id="0s8KUhowPci_GjtV0Qzg-23" style="edgeStyle=orthogonalEdgeStyle;rounded=0;orthogonalLoop=1;jettySize=auto;html=1;entryX=0.5;entryY=0;entryDx=0;entryDy=0;" parent="1" source="0s8KUhowPci_GjtV0Qzg-19" target="0s8KUhowPci_GjtV0Qzg-21" edge="1">
          <mxGeometry relative="1" as="geometry">
            <Array as="points">
              <mxPoint x="380" y="260" />
            </Array>
          </mxGeometry>
        </mxCell>
        <mxCell id="0s8KUhowPci_GjtV0Qzg-19" value="Extract and Visualize GT Coordinates.&lt;div&gt;(Green BBoxes)&amp;nbsp;&lt;/div&gt;" style="rounded=1;whiteSpace=wrap;html=1;" parent="1" vertex="1">
          <mxGeometry x="230" y="230" width="120" height="60" as="geometry" />
        </mxCell>
        <mxCell id="0s8KUhowPci_GjtV0Qzg-28" value="" style="edgeStyle=orthogonalEdgeStyle;rounded=0;orthogonalLoop=1;jettySize=auto;html=1;" parent="1" source="0s8KUhowPci_GjtV0Qzg-21" target="0s8KUhowPci_GjtV0Qzg-27" edge="1">
          <mxGeometry relative="1" as="geometry" />
        </mxCell>
        <mxCell id="0s8KUhowPci_GjtV0Qzg-44" value="IoU&amp;gt; 0.5" style="edgeLabel;html=1;align=center;verticalAlign=middle;resizable=0;points=[];" parent="0s8KUhowPci_GjtV0Qzg-28" vertex="1" connectable="0">
          <mxGeometry x="-0.1" y="-2" relative="1" as="geometry">
            <mxPoint as="offset" />
          </mxGeometry>
        </mxCell>
        <mxCell id="0s8KUhowPci_GjtV0Qzg-21" value="Calculate Intersection Over Union (IOU)" style="rounded=1;whiteSpace=wrap;html=1;" parent="1" vertex="1">
          <mxGeometry x="320" y="360" width="120" height="60" as="geometry" />
        </mxCell>
        <mxCell id="0s8KUhowPci_GjtV0Qzg-31" style="edgeStyle=orthogonalEdgeStyle;rounded=0;orthogonalLoop=1;jettySize=auto;html=1;entryX=0.5;entryY=0;entryDx=0;entryDy=0;" parent="1" source="0s8KUhowPci_GjtV0Qzg-25" target="0s8KUhowPci_GjtV0Qzg-29" edge="1">
          <mxGeometry relative="1" as="geometry" />
        </mxCell>
        <mxCell id="0s8KUhowPci_GjtV0Qzg-25" value="Count Number of Cars Detected by YOLO (DetectedBoxes)" style="rounded=1;whiteSpace=wrap;html=1;" parent="1" vertex="1">
          <mxGeometry x="580" y="310" width="120" height="60" as="geometry" />
        </mxCell>
        <mxCell id="0s8KUhowPci_GjtV0Qzg-30" value="" style="edgeStyle=orthogonalEdgeStyle;rounded=0;orthogonalLoop=1;jettySize=auto;html=1;entryX=0;entryY=0.5;entryDx=0;entryDy=0;" parent="1" source="0s8KUhowPci_GjtV0Qzg-27" target="0s8KUhowPci_GjtV0Qzg-29" edge="1">
          <mxGeometry relative="1" as="geometry">
            <Array as="points">
              <mxPoint x="480" y="510" />
              <mxPoint x="480" y="489" />
              <mxPoint x="587" y="489" />
            </Array>
          </mxGeometry>
        </mxCell>
        <mxCell id="0s8KUhowPci_GjtV0Qzg-33" value="" style="edgeStyle=orthogonalEdgeStyle;rounded=0;orthogonalLoop=1;jettySize=auto;html=1;" parent="1" source="0s8KUhowPci_GjtV0Qzg-27" target="0s8KUhowPci_GjtV0Qzg-32" edge="1">
          <mxGeometry relative="1" as="geometry">
            <Array as="points">
              <mxPoint x="260" y="510" />
              <mxPoint x="260" y="455" />
            </Array>
          </mxGeometry>
        </mxCell>
        <mxCell id="0s8KUhowPci_GjtV0Qzg-41" value="" style="edgeStyle=orthogonalEdgeStyle;rounded=0;orthogonalLoop=1;jettySize=auto;html=1;" parent="1" source="0s8KUhowPci_GjtV0Qzg-27" target="0s8KUhowPci_GjtV0Qzg-40" edge="1">
          <mxGeometry relative="1" as="geometry" />
        </mxCell>
        <mxCell id="0s8KUhowPci_GjtV0Qzg-27" value="Evaluate IoU and Count True Positives (TP)&lt;br&gt;(Red BBoxes)" style="rounded=1;whiteSpace=wrap;html=1;" parent="1" vertex="1">
          <mxGeometry x="320" y="480" width="120" height="60" as="geometry" />
        </mxCell>
        <mxCell id="0s8KUhowPci_GjtV0Qzg-39" value="" style="edgeStyle=orthogonalEdgeStyle;rounded=0;orthogonalLoop=1;jettySize=auto;html=1;" parent="1" source="0s8KUhowPci_GjtV0Qzg-29" target="0s8KUhowPci_GjtV0Qzg-38" edge="1">
          <mxGeometry relative="1" as="geometry" />
        </mxCell>
        <mxCell id="0s8KUhowPci_GjtV0Qzg-29" value="Calculate False Positive(FP)&lt;div&gt;&amp;nbsp;FP= DetectedBoxes-TP&lt;/div&gt;" style="rounded=1;whiteSpace=wrap;html=1;" parent="1" vertex="1">
          <mxGeometry x="580" y="474" width="120" height="60" as="geometry" />
        </mxCell>
        <mxCell id="0s8KUhowPci_GjtV0Qzg-37" value="" style="edgeStyle=orthogonalEdgeStyle;rounded=0;orthogonalLoop=1;jettySize=auto;html=1;" parent="1" source="0s8KUhowPci_GjtV0Qzg-32" target="0s8KUhowPci_GjtV0Qzg-36" edge="1">
          <mxGeometry relative="1" as="geometry">
            <Array as="points">
              <mxPoint x="140" y="470" />
              <mxPoint x="140" y="470" />
            </Array>
          </mxGeometry>
        </mxCell>
        <mxCell id="0s8KUhowPci_GjtV0Qzg-32" value="Calculate False Negative (FN)&lt;div&gt;&amp;nbsp;FP= GTBoxes- TP&lt;/div&gt;" style="rounded=1;whiteSpace=wrap;html=1;" parent="1" vertex="1">
          <mxGeometry x="82" y="430" width="120" height="60" as="geometry" />
        </mxCell>
        <mxCell id="0s8KUhowPci_GjtV0Qzg-51" style="edgeStyle=orthogonalEdgeStyle;rounded=0;orthogonalLoop=1;jettySize=auto;html=1;exitX=0.5;exitY=1;exitDx=0;exitDy=0;" parent="1" source="0s8KUhowPci_GjtV0Qzg-36" target="0s8KUhowPci_GjtV0Qzg-47" edge="1">
          <mxGeometry relative="1" as="geometry">
            <Array as="points">
              <mxPoint x="140" y="880" />
            </Array>
          </mxGeometry>
        </mxCell>
        <mxCell id="0s8KUhowPci_GjtV0Qzg-36" value="Calculating Recall&amp;nbsp;&lt;br&gt;= TP/TP + FN" style="rounded=1;whiteSpace=wrap;html=1;" parent="1" vertex="1">
          <mxGeometry x="80" y="570" width="120" height="60" as="geometry" />
        </mxCell>
        <mxCell id="0s8KUhowPci_GjtV0Qzg-52" style="edgeStyle=orthogonalEdgeStyle;rounded=0;orthogonalLoop=1;jettySize=auto;html=1;exitX=0.5;exitY=1;exitDx=0;exitDy=0;entryX=1;entryY=0.5;entryDx=0;entryDy=0;" parent="1" source="0s8KUhowPci_GjtV0Qzg-38" target="0s8KUhowPci_GjtV0Qzg-47" edge="1">
          <mxGeometry relative="1" as="geometry" />
        </mxCell>
        <mxCell id="0s8KUhowPci_GjtV0Qzg-38" value="Calculate Precision&amp;nbsp;&lt;div&gt;= TP/ TP + FP&lt;/div&gt;" style="rounded=1;whiteSpace=wrap;html=1;" parent="1" vertex="1">
          <mxGeometry x="580" y="570" width="120" height="60" as="geometry" />
        </mxCell>
        <mxCell id="0s8KUhowPci_GjtV0Qzg-43" value="" style="edgeStyle=orthogonalEdgeStyle;rounded=0;orthogonalLoop=1;jettySize=auto;html=1;" parent="1" source="0s8KUhowPci_GjtV0Qzg-40" target="0s8KUhowPci_GjtV0Qzg-42" edge="1">
          <mxGeometry relative="1" as="geometry" />
        </mxCell>
        <mxCell id="0s8KUhowPci_GjtV0Qzg-40" value="Using Intrinsic Matrix and Camera height to estimate depth" style="rounded=1;whiteSpace=wrap;html=1;" parent="1" vertex="1">
          <mxGeometry x="320" y="570" width="120" height="60" as="geometry" />
        </mxCell>
        <mxCell id="0s8KUhowPci_GjtV0Qzg-46" value="" style="edgeStyle=orthogonalEdgeStyle;rounded=0;orthogonalLoop=1;jettySize=auto;html=1;" parent="1" source="0s8KUhowPci_GjtV0Qzg-42" target="0s8KUhowPci_GjtV0Qzg-45" edge="1">
          <mxGeometry relative="1" as="geometry" />
        </mxCell>
        <mxCell id="0s8KUhowPci_GjtV0Qzg-42" value="Identify 8 points for each bounding box (4 corners + 4 midpoints)." style="rounded=1;whiteSpace=wrap;html=1;" parent="1" vertex="1">
          <mxGeometry x="320" y="650" width="120" height="60" as="geometry" />
        </mxCell>
        <mxCell id="0s8KUhowPci_GjtV0Qzg-48" value="" style="edgeStyle=orthogonalEdgeStyle;rounded=0;orthogonalLoop=1;jettySize=auto;html=1;" parent="1" source="0s8KUhowPci_GjtV0Qzg-45" target="0s8KUhowPci_GjtV0Qzg-47" edge="1">
          <mxGeometry relative="1" as="geometry" />
        </mxCell>
        <mxCell id="0s8KUhowPci_GjtV0Qzg-49" value="Minimum Distance" style="edgeLabel;html=1;align=center;verticalAlign=middle;resizable=0;points=[];" parent="0s8KUhowPci_GjtV0Qzg-48" vertex="1" connectable="0">
          <mxGeometry y="-1" relative="1" as="geometry">
            <mxPoint as="offset" />
          </mxGeometry>
        </mxCell>
        <mxCell id="0s8KUhowPci_GjtV0Qzg-45" value="Calculate the distance of all 8 point&amp;nbsp;" style="rounded=1;whiteSpace=wrap;html=1;" parent="1" vertex="1">
          <mxGeometry x="320" y="740" width="120" height="60" as="geometry" />
        </mxCell>
        <mxCell id="0s8KUhowPci_GjtV0Qzg-47" value="Visualize Calculated, GT Distance along with Precision and Recall values&amp;nbsp;&lt;div&gt;Red and Green Bounding boxes&amp;nbsp;&lt;/div&gt;" style="rounded=1;whiteSpace=wrap;html=1;" parent="1" vertex="1">
          <mxGeometry x="180" y="850" width="400" height="60" as="geometry" />
        </mxCell>
        <mxCell id="0s8KUhowPci_GjtV0Qzg-50" value="Refer Fig. 2.2" style="text;html=1;align=center;verticalAlign=middle;whiteSpace=wrap;rounded=0;" parent="1" vertex="1">
          <mxGeometry x="440" y="665" width="80" height="30" as="geometry" />
        </mxCell>
      </root>
    </mxGraphModel>
  </diagram>
</mxfile>
